<?xml version="1.0" encoding="UTF-8" standalone="no"?>
<!-- Created with Inkscape (http://www.inkscape.org/) -->

<svg
   xmlns:dc="http://purl.org/dc/elements/1.1/"
   xmlns:cc="http://creativecommons.org/ns#"
   xmlns:rdf="http://www.w3.org/1999/02/22-rdf-syntax-ns#"
   xmlns:svg="http://www.w3.org/2000/svg"
   xmlns="http://www.w3.org/2000/svg"
   xmlns:sodipodi="http://sodipodi.sourceforge.net/DTD/sodipodi-0.dtd"
   xmlns:inkscape="http://www.inkscape.org/namespaces/inkscape"
   width="38.394501mm"
   height="16.485058mm"
   viewBox="0 0 136.04351 58.411622"
   id="svg2"
   version="1.1"
   inkscape:version="0.91 r13725"
   sodipodi:docname="vaf-logo.svg">
  <defs
     id="defs4">
    <clipPath
       id="clipPath4150"
       clipPathUnits="userSpaceOnUse">
      <path
         inkscape:connector-curvature="0"
         id="path4152"
         d="M 0,54 126,54 126,0 0,0 0,54 Z" />
    </clipPath>
  </defs>
  <sodipodi:namedview
     id="base"
     pagecolor="#ffffff"
     bordercolor="#666666"
     borderopacity="1.0"
     inkscape:pageopacity="0.0"
     inkscape:pageshadow="2"
     inkscape:zoom="0.24748738"
     inkscape:cx="-293.61758"
     inkscape:cy="394.94015"
     inkscape:document-units="px"
     inkscape:current-layer="layer1"
     showgrid="false"
     inkscape:window-width="1536"
     inkscape:window-height="801"
     inkscape:window-x="-8"
     inkscape:window-y="-8"
     inkscape:window-maximized="1"
     objecttolerance="20"
     fit-margin-top="0"
     fit-margin-left="0"
     fit-margin-right="0"
     fit-margin-bottom="0" />
  <metadata
     id="metadata7">
    <rdf:RDF>
      <cc:Work
         rdf:about="">
        <dc:format>image/svg+xml</dc:format>
        <dc:type
           rdf:resource="http://purl.org/dc/dcmitype/StillImage" />
        <dc:title></dc:title>
      </cc:Work>
    </rdf:RDF>
  </metadata>
  <g
     inkscape:label="Layer 1"
     inkscape:groupmode="layer"
     id="layer1"
     transform="translate(-125.14358,-171.82637)">
    <g
       transform="matrix(1.25,0,0,-1.25,114.44233,234.74824)"
       inkscape:label="VAF_Spearmint_Green"
       id="g4144"
       style="fill:#ffffff"
       inkscape:export-xdpi="181.429"
       inkscape:export-ydpi="181.429">
      <g
         id="g4146"
         style="fill:#ffffff">
        <g
           clip-path="url(#clipPath4150)"
           id="g4148"
           style="fill:#ffffff">
          <g
             transform="translate(8.561,4.0078)"
             id="g4154"
             style="fill:#ffffff">
            <path
               inkscape:connector-curvature="0"
               id="path4156"
               style="fill:#ffffff;fill-opacity:1;fill-rule:nonzero;stroke:none"
               d="M 0,0 35.566,45.837 C 29.602,34.695 25.756,27.404 25.908,16.746 L 20.865,10.253 C 14.413,7.304 3.78,3.472 0,0" />
          </g>
          <g
             transform="translate(29.4258,14.2607)"
             id="g4158"
             style="fill:#ffffff">
            <path
               inkscape:connector-curvature="0"
               id="path4160"
               style="fill:#ffffff;fill-opacity:1;fill-rule:nonzero;stroke:none"
               d="M 0,0 C 3.11,1.422 5.25,2.639 5.182,3.512 5.101,4.537 5.057,5.527 5.043,6.493 l 9.811,12.63 C 11.065,12.045 8.611,7.422 8.67,0.688 L 5.257,-3.705 C 1.112,-5.581 -5.525,-7.993 -7.908,-10.182 L 0,0 Z" />
          </g>
          <g
             transform="translate(38.187,12.8887)"
             id="g4162"
             style="fill:#ffffff">
            <path
               inkscape:connector-curvature="0"
               id="path4164"
               style="fill:#ffffff;fill-opacity:1;fill-rule:nonzero;stroke:none"
               d="M 0,0 C -0.056,0.71 -0.085,1.396 -0.091,2.061 L 5.946,9.833 C 3.282,4.855 1.648,1.775 2.047,-3.284 0.857,-4.43 -6.47,-6.945 -8.622,-8.922 l 5.118,6.589 C -1.412,-1.387 0.045,-0.576 0,0" />
          </g>
          <g
             transform="translate(38.187,12.8887)"
             id="g4166"
             style="fill:#ffffff">
            <path
               inkscape:connector-curvature="0"
               id="path4168"
               style="fill:#ffffff;fill-opacity:1;fill-rule:nonzero;stroke:none"
               d="m 0,0 c 0.045,-0.576 -1.412,-1.387 -3.504,-2.333 l 3.413,4.394 C -0.085,1.396 -0.056,0.71 0,0" />
          </g>
          <g
             transform="translate(57.5083,24.5195)"
             id="g4170"
             style="fill:#ffffff">
            <path
               inkscape:connector-curvature="0"
               id="path4172"
               style="fill:#ffffff;fill-opacity:1;fill-rule:nonzero;stroke:none"
               d="M 0,0 C 0.144,0 0.144,0.085 0.12,0.143 L -1.993,6.22 c -0.071,0.198 -0.12,0.142 -0.168,0 L -4.201,0.143 C -4.225,0.057 -4.177,0 -4.105,0 L 0,0 Z m -4.802,-2.271 c -0.119,0 -0.168,-0.058 -0.216,-0.2 L -5.762,-4.8 c -0.24,-0.738 -0.384,-1.476 -0.384,-1.817 0,-0.539 0.216,-0.795 0.72,-0.852 0.264,-0.056 0.649,-0.085 0.841,-0.114 0.36,0 0.432,-0.142 0.432,-0.283 0,-0.228 -0.192,-0.284 -0.505,-0.284 -1.08,0 -1.896,0.085 -3.169,0.085 -0.263,0 -1.848,-0.085 -3.048,-0.085 -0.336,0 -0.48,0.113 -0.48,0.284 0,0.226 0.167,0.283 0.456,0.283 0.288,0.029 0.528,0.058 0.768,0.114 0.84,0.198 1.32,1.079 1.824,2.443 l 6.411,17.153 c 0.456,1.221 0.72,1.647 0.983,1.647 0.241,0 0.457,-0.397 0.865,-1.42 0.624,-1.59 4.657,-12.467 6.29,-16.785 0.816,-2.215 1.344,-2.896 2.184,-3.038 0.265,-0.085 0.553,-0.085 0.769,-0.114 0.312,0 0.456,-0.113 0.456,-0.283 0,-0.199 -0.168,-0.284 -0.624,-0.284 -2.353,0 -5.09,0.056 -6.626,0.085 -0.384,0 -0.528,0.085 -0.528,0.255 0,0.17 0.12,0.285 0.335,0.341 0.265,0.057 0.361,0.255 0.289,0.511 l -1.609,4.516 c -0.024,0.113 -0.12,0.171 -0.192,0.171 l -5.498,0 z" />
          </g>
          <g
             transform="translate(74.498,27.7007)"
             id="g4174"
             style="fill:#ffffff">
            <path
               inkscape:connector-curvature="0"
               id="path4176"
               style="fill:#ffffff;fill-opacity:1;fill-rule:nonzero;stroke:none"
               d="m 0,0 c 0,-0.227 0.071,-0.341 0.216,-0.426 0.456,-0.284 1.176,-0.369 1.848,-0.369 0.649,0 1.129,0.113 1.513,0.454 0.504,0.454 0.936,1.675 0.936,3.578 0,4.033 -2.16,5.084 -3.409,5.084 C 0.72,8.321 0.312,8.292 0.144,8.208 0.048,8.15 0,8.122 0,7.895 L 0,0 Z m -4.129,1.903 c 0,4.402 -0.049,4.97 -0.073,5.878 -0.047,1.165 -0.336,1.534 -0.912,1.676 -0.361,0.085 -0.743,0.085 -0.96,0.114 -0.288,0.028 -0.432,0.142 -0.432,0.312 0,0.171 0.168,0.256 0.527,0.256 1.034,0 3.338,-0.085 3.674,-0.085 0.456,0 2.761,0.085 3.866,0.085 2.256,0 3.84,-0.256 4.896,-0.966 C 7.61,8.435 8.643,6.986 8.643,4.828 8.643,2.442 7.49,0.625 5.426,-0.88 c 1.464,-2.499 3.217,-5.538 4.68,-7.527 1.273,-1.676 1.849,-2.158 2.522,-2.271 0.264,-0.057 0.408,-0.057 0.6,-0.086 0.264,0 0.408,-0.113 0.408,-0.283 0,-0.256 -0.24,-0.285 -0.481,-0.285 l -2.16,0 c -2.473,0 -3.529,0.285 -4.369,0.937 -0.769,0.54 -1.536,1.761 -2.473,3.551 -1.104,2.158 -1.657,3.322 -2.089,4.089 -0.047,0.086 -0.168,0.171 -0.288,0.171 l -1.584,0 C 0.071,-2.584 0,-2.641 0,-2.812 L 0,-4.26 c 0,-2.243 0,-3.578 0.12,-4.772 0.048,-0.738 0.216,-1.363 0.936,-1.561 0.336,-0.114 0.6,-0.114 1.081,-0.171 0.384,-0.028 0.431,-0.142 0.431,-0.312 0,-0.171 -0.168,-0.256 -0.504,-0.256 -1.608,0 -4.225,0.085 -4.393,0.085 -0.288,0 -2.616,-0.085 -3.433,-0.085 -0.36,0 -0.48,0.085 -0.48,0.285 0,0.198 0.168,0.283 0.431,0.283 0.241,0.029 0.553,0.057 0.817,0.114 0.48,0.142 0.673,0.653 0.745,1.618 0.096,1.194 0.12,3.182 0.12,5.936 l 0,4.999 z" />
          </g>
          <g
             transform="translate(96.8389,24.6045)"
             id="g4178"
             style="fill:#ffffff">
            <path
               inkscape:connector-curvature="0"
               id="path4180"
               style="fill:#ffffff;fill-opacity:1;fill-rule:nonzero;stroke:none"
               d="m 0,0 c 0,-2.215 0,-4.855 0.12,-6.049 0.048,-0.738 0.216,-1.335 0.936,-1.476 0.312,-0.057 0.6,-0.085 1.033,-0.143 0.384,-0.028 0.479,-0.113 0.479,-0.311 0,-0.171 -0.12,-0.256 -0.551,-0.256 -1.633,0 -3.961,0.085 -4.346,0.085 -0.408,0 -2.736,-0.085 -3.528,-0.085 -0.385,0 -0.553,0.056 -0.553,0.284 0,0.198 0.192,0.283 0.48,0.283 0.241,0.029 0.504,0.058 0.768,0.114 0.528,0.114 0.696,0.739 0.768,1.562 0.097,1.193 0.145,3.238 0.145,5.992 l 0,11.133 c -0.937,0 -2.425,0.029 -3.626,-0.056 -1.344,-0.086 -1.872,-0.455 -2.185,-1.449 -0.119,-0.312 -0.168,-0.482 -0.215,-0.653 -0.048,-0.227 -0.121,-0.454 -0.288,-0.454 -0.216,0 -0.216,0.227 -0.193,0.567 0.097,1.165 0.36,2.699 0.528,3.778 0.049,0.426 0.121,0.71 0.265,0.71 0.168,0 0.264,-0.086 0.816,-0.227 0.432,-0.114 1.752,-0.199 2.665,-0.199 l 10.443,0 c 0.744,0 1.177,0.057 1.513,0.113 0.383,0.086 0.576,0.171 0.744,0.171 0.216,0 0.24,-0.171 0.24,-0.881 C 6.458,12.156 6.313,9.515 6.289,8.805 6.266,8.407 6.194,8.236 6.05,8.236 5.857,8.236 5.81,8.407 5.785,8.748 5.762,9.06 5.762,9.174 5.738,9.316 5.642,10.196 5.281,10.877 3.865,10.991 3.073,11.077 1.824,11.133 0,11.133 L 0,0 Z" />
          </g>
          <g
             transform="translate(105.418,16.7666)"
             id="g4182"
             style="fill:#ffffff">
            <path
               inkscape:connector-curvature="0"
               id="path4184"
               style="fill:#ffffff;fill-opacity:1;fill-rule:nonzero;stroke:none"
               d="m 0,0 c -0.408,0.199 -0.527,0.568 -0.527,1.136 0,2.301 0.071,3.38 0.143,4.175 0.048,0.511 0.144,0.681 0.288,0.681 C 0.072,5.992 0.097,5.737 0.12,5.51 0.145,5.226 0.168,4.97 0.24,4.629 0.648,2.3 2.449,0.966 4.321,0.966 c 2.282,0 2.978,1.391 2.978,2.612 0,1.193 -0.193,2.188 -2.234,3.834 L 3.577,8.634 c -2.929,2.442 -3.745,4.43 -3.745,6.929 0,3.266 2.28,5.907 6.122,5.907 1.032,0 1.753,-0.056 2.761,-0.283 0.384,-0.086 0.792,-0.199 1.176,-0.341 0.241,-0.086 0.312,-0.171 0.312,-0.398 -0.048,-0.909 -0.096,-1.477 -0.096,-4.005 0,-0.511 -0.072,-0.709 -0.264,-0.709 -0.12,0 -0.216,0.085 -0.264,0.539 -0.024,0.284 -0.096,0.994 -0.432,1.647 -0.456,0.909 -1.56,1.875 -3.289,1.875 -1.968,0 -2.689,-1.307 -2.689,-2.613 0,-0.966 0.288,-2.073 1.921,-3.38 l 1.224,-0.965 c 3.361,-2.641 4.417,-4.402 4.417,-7.271 0,-1.96 -0.744,-3.89 -2.544,-5.14 C 6.795,-0.568 5.258,-0.795 4.009,-0.795 2.209,-0.795 0.937,-0.512 0,0" />
          </g>
          <g
             transform="translate(47.5229,48.8296)"
             id="g4186"
             style="fill:#ffffff">
            <path
               inkscape:connector-curvature="0"
               id="path4188"
               style="fill:#ffffff;fill-opacity:1;fill-rule:nonzero;stroke:none"
               d="m 0,0 c -0.338,0.799 -0.472,0.916 -0.883,1.006 -0.097,0.025 -0.206,0.038 -0.279,0.038 -0.132,0.026 -0.193,0.078 -0.193,0.142 0,0.09 0.097,0.116 0.254,0.116 0.653,0 1.355,-0.038 1.839,-0.038 0.424,0 1.077,0.038 2.021,0.038 C 2.94,1.302 3.038,1.25 3.038,1.173 3.038,1.096 2.965,1.044 2.856,1.044 2.71,1.031 2.638,1.031 2.529,1.006 2.214,0.954 2.166,0.812 2.166,0.683 2.166,0.516 2.239,0.258 2.444,-0.296 3.013,-1.87 3.775,-3.791 4.32,-5.299 4.816,-4.113 6.075,-0.954 6.474,0.258 6.534,0.399 6.571,0.567 6.571,0.683 6.571,0.851 6.498,0.941 6.28,0.98 6.135,1.019 5.929,1.031 5.796,1.044 5.639,1.057 5.579,1.096 5.579,1.173 c 0,0.077 0.06,0.129 0.266,0.129 0.798,0 1.391,-0.038 1.572,-0.038 0.182,0 0.969,0.038 1.344,0.038 0.181,0 0.266,-0.038 0.266,-0.129 C 9.027,1.083 8.966,1.044 8.809,1.044 8.664,1.031 8.47,1.031 8.277,0.928 8.022,0.799 7.853,0.529 7.515,-0.232 7.03,-1.341 6.595,-2.385 5.905,-4.023 5.131,-5.854 4.61,-7.027 4.296,-7.698 3.945,-8.458 3.824,-8.626 3.667,-8.626 3.497,-8.626 3.4,-8.445 3.17,-7.853 L 0,0 Z" />
          </g>
          <g
             transform="translate(58.3081,46.3926)"
             id="g4190"
             style="fill:#ffffff">
            <path
               inkscape:connector-curvature="0"
               id="path4192"
               style="fill:#ffffff;fill-opacity:1;fill-rule:nonzero;stroke:none"
               d="m 0,0 c 0,1.999 0,2.373 -0.036,2.785 -0.025,0.361 -0.158,0.593 -0.424,0.645 -0.084,0.026 -0.206,0.038 -0.363,0.051 -0.145,0 -0.23,0.052 -0.23,0.142 0,0.078 0.061,0.116 0.266,0.116 0.484,0 1.67,-0.038 1.767,-0.038 0.109,0 1.537,0.038 1.973,0.038 0.205,0 0.266,-0.051 0.266,-0.129 C 3.219,3.507 3.11,3.481 2.989,3.481 2.868,3.468 2.795,3.468 2.638,3.443 2.323,3.378 2.202,3.21 2.178,2.747 2.142,2.334 2.142,1.999 2.142,0 l 0,-2.269 c 0,-1.019 0.012,-2.218 0.06,-2.759 0.025,-0.336 0.097,-0.568 0.46,-0.658 0.157,-0.039 0.375,-0.052 0.532,-0.064 0.206,0 0.255,-0.052 0.255,-0.129 0,-0.065 -0.061,-0.129 -0.255,-0.129 -0.822,0 -2.117,0.038 -2.226,0.038 -0.061,0 -1.331,-0.038 -1.742,-0.038 -0.194,0 -0.291,0.026 -0.291,0.129 0,0.09 0.097,0.129 0.242,0.129 0.121,0.012 0.242,0.025 0.375,0.051 0.254,0.039 0.339,0.323 0.375,0.696 C -0.024,-4.461 0,-3.533 0,-2.269 L 0,0 Z" />
          </g>
          <g
             transform="translate(66.2461,45.5288)"
             id="g4194"
             style="fill:#ffffff">
            <path
               inkscape:connector-curvature="0"
               id="path4196"
               style="fill:#ffffff;fill-opacity:1;fill-rule:nonzero;stroke:none"
               d="m 0,0 c 0,-0.103 0.036,-0.155 0.109,-0.193 0.23,-0.129 0.593,-0.168 0.932,-0.168 0.326,0 0.568,0.051 0.762,0.206 0.255,0.206 0.472,0.761 0.472,1.625 0,1.831 -1.089,2.308 -1.718,2.308 -0.194,0 -0.4,-0.013 -0.485,-0.052 C 0.024,3.7 0,3.688 0,3.584 L 0,0 Z m -2.081,0.864 c 0,1.998 -0.024,2.256 -0.036,2.669 -0.025,0.529 -0.17,0.696 -0.46,0.76 -0.182,0.039 -0.375,0.039 -0.484,0.052 -0.146,0.013 -0.218,0.065 -0.218,0.142 0,0.077 0.085,0.116 0.266,0.116 0.52,0 1.682,-0.039 1.852,-0.039 0.229,0 1.391,0.039 1.948,0.039 1.137,0 1.936,-0.116 2.468,-0.438 C 3.836,3.83 4.356,3.172 4.356,2.192 4.356,1.109 3.775,0.284 2.734,-0.4 c 0.739,-1.134 1.622,-2.514 2.361,-3.416 0.64,-0.761 0.931,-0.98 1.27,-1.032 0.133,-0.026 0.205,-0.026 0.302,-0.039 0.134,0 0.206,-0.051 0.206,-0.129 0,-0.116 -0.121,-0.129 -0.242,-0.129 l -1.089,0 c -1.246,0 -1.778,0.129 -2.202,0.426 -0.388,0.245 -0.775,0.799 -1.246,1.612 -0.557,0.98 -0.835,1.508 -1.053,1.856 -0.024,0.039 -0.085,0.078 -0.145,0.078 l -0.799,0 C 0.036,-1.173 0,-1.199 0,-1.276 L 0,-1.934 C 0,-2.953 0,-3.559 0.061,-4.1 0.085,-4.436 0.17,-4.719 0.532,-4.81 0.702,-4.861 0.835,-4.861 1.077,-4.887 1.271,-4.9 1.295,-4.951 1.295,-5.029 c 0,-0.077 -0.085,-0.116 -0.254,-0.116 -0.811,0 -2.13,0.039 -2.215,0.039 -0.144,0 -1.319,-0.039 -1.73,-0.039 -0.181,0 -0.242,0.039 -0.242,0.129 0,0.091 0.085,0.129 0.218,0.129 0.121,0.013 0.278,0.026 0.411,0.052 0.242,0.064 0.339,0.296 0.375,0.735 0.049,0.541 0.061,1.444 0.061,2.695 l 0,2.269 z" />
          </g>
          <g
             transform="translate(81.5156,41.6221)"
             id="g4198"
             style="fill:#ffffff">
            <path
               inkscape:connector-curvature="0"
               id="path4200"
               style="fill:#ffffff;fill-opacity:1;fill-rule:nonzero;stroke:none"
               d="m 0,0 c 0,-0.761 -0.024,-0.838 -0.242,-0.928 -0.642,-0.271 -1.875,-0.49 -2.965,-0.49 -3.399,0 -5.76,1.624 -5.76,5.054 0,2.153 1.053,3.52 2.179,4.203 1.246,0.787 2.553,0.851 3.473,0.851 0.738,0 1.439,-0.09 1.96,-0.18 0.411,-0.052 0.81,-0.142 1.162,-0.155 0.108,0 0.132,-0.052 0.121,-0.167 -0.025,-0.129 -0.134,-0.658 -0.134,-2.373 0,-0.207 -0.048,-0.271 -0.133,-0.271 -0.085,0 -0.133,0.103 -0.145,0.206 -0.024,0.194 -0.024,0.336 -0.145,0.645 -0.23,0.877 -1.308,1.496 -2.989,1.496 -0.896,0 -1.621,-0.271 -2.166,-0.929 -0.472,-0.567 -0.762,-1.521 -0.762,-2.785 0,-2.307 1.04,-4.77 3.581,-4.77 0.17,0 0.496,0.013 0.678,0.155 0.097,0.077 0.145,0.193 0.145,0.348 l 0,0.786 c 0,0.529 0,1.032 -0.012,1.509 0,0.734 -0.158,1.005 -0.569,1.07 -0.157,0.026 -0.314,0.038 -0.52,0.064 -0.097,0 -0.194,0.052 -0.194,0.129 0,0.078 0.061,0.129 0.254,0.129 0.787,0 1.719,-0.038 2.045,-0.038 0.436,0 1.223,0.038 1.876,0.038 0.182,0 0.279,-0.026 0.279,-0.129 C 1.017,3.378 0.943,3.352 0.822,3.339 0.774,3.339 0.617,3.313 0.496,3.301 0.206,3.236 0.072,3.094 0.036,2.643 0.012,2.23 0,1.56 0,0.928 L 0,0 Z" />
          </g>
          <g
             transform="translate(84.4238,46.3926)"
             id="g4202"
             style="fill:#ffffff">
            <path
               inkscape:connector-curvature="0"
               id="path4204"
               style="fill:#ffffff;fill-opacity:1;fill-rule:nonzero;stroke:none"
               d="m 0,0 c 0,1.999 0,2.373 -0.036,2.785 -0.025,0.361 -0.157,0.593 -0.424,0.645 -0.085,0.026 -0.206,0.038 -0.363,0.051 -0.145,0 -0.23,0.052 -0.23,0.142 0,0.078 0.061,0.116 0.267,0.116 0.483,0 1.669,-0.038 1.766,-0.038 0.109,0 1.537,0.038 1.972,0.038 0.206,0 0.267,-0.051 0.267,-0.129 C 3.219,3.507 3.109,3.481 2.988,3.481 2.868,3.468 2.795,3.468 2.638,3.443 2.323,3.378 2.202,3.21 2.178,2.747 2.142,2.334 2.142,1.999 2.142,0 l 0,-2.269 c 0,-1.019 0.011,-2.218 0.06,-2.759 0.025,-0.336 0.097,-0.568 0.46,-0.658 0.157,-0.039 0.375,-0.052 0.532,-0.064 0.206,0 0.254,-0.052 0.254,-0.129 0,-0.065 -0.06,-0.129 -0.254,-0.129 -0.823,0 -2.117,0.038 -2.226,0.038 -0.061,0 -1.331,-0.038 -1.742,-0.038 -0.194,0 -0.29,0.026 -0.29,0.129 0,0.09 0.096,0.129 0.241,0.129 0.121,0.012 0.242,0.025 0.375,0.051 0.255,0.039 0.339,0.323 0.376,0.696 C -0.024,-4.461 0,-3.533 0,-2.269 L 0,0 Z" />
          </g>
          <g
             transform="translate(90.292,49.7061)"
             id="g4206"
             style="fill:#ffffff">
            <path
               inkscape:connector-curvature="0"
               id="path4208"
               style="fill:#ffffff;fill-opacity:1;fill-rule:nonzero;stroke:none"
               d="M 0,0 C 0.012,0.387 0.061,0.619 0.206,0.619 0.303,0.619 0.363,0.581 0.678,0.31 1.186,-0.142 1.815,-0.786 4.586,-3.494 5.82,-4.706 6.655,-5.57 6.981,-5.879 L 6.909,-1.044 C 6.885,-0.322 6.824,0.013 6.341,0.104 6.171,0.142 5.978,0.155 5.808,0.168 5.65,0.168 5.59,0.232 5.59,0.297 c 0,0.09 0.109,0.129 0.242,0.129 0.484,0 1.271,-0.039 1.755,-0.039 0.266,0 0.871,0.039 1.379,0.039 0.181,0 0.266,-0.039 0.266,-0.116 C 9.232,0.245 9.172,0.168 9.026,0.168 8.869,0.155 8.809,0.155 8.725,0.129 8.325,0.078 8.204,-0.142 8.168,-0.941 8.07,-3.533 8.07,-6.111 8.022,-8.703 c 0,-0.657 -0.085,-0.799 -0.242,-0.799 -0.193,0 -0.568,0.309 -1.355,1.044 -0.822,0.773 -1.888,1.792 -2.613,2.501 -0.678,0.658 -1.888,1.87 -2.772,2.786 l 0.121,-4.397 c 0.025,-0.929 0.073,-1.277 0.412,-1.406 0.182,-0.064 0.4,-0.064 0.641,-0.09 0.182,-0.013 0.242,-0.052 0.242,-0.129 0,-0.103 -0.097,-0.129 -0.29,-0.129 -0.424,0 -0.811,0.026 -1.562,0.039 -0.278,0 -1.172,-0.039 -1.645,-0.039 -0.169,0 -0.266,0.026 -0.266,0.129 0,0.077 0.061,0.129 0.23,0.129 0.109,0.013 0.266,0.013 0.399,0.039 0.472,0.077 0.532,0.4 0.569,1.598 C -0.049,-4.771 -0.072,-1.663 0,0" />
          </g>
          <g
             transform="translate(101.9053,46.3926)"
             id="g4210"
             style="fill:#ffffff">
            <path
               inkscape:connector-curvature="0"
               id="path4212"
               style="fill:#ffffff;fill-opacity:1;fill-rule:nonzero;stroke:none"
               d="m 0,0 c 0,1.999 0,2.373 -0.036,2.785 -0.025,0.361 -0.157,0.593 -0.424,0.645 -0.085,0.026 -0.206,0.038 -0.363,0.051 -0.145,0 -0.23,0.052 -0.23,0.142 0,0.078 0.061,0.116 0.267,0.116 0.483,0 1.669,-0.038 1.766,-0.038 0.109,0 1.537,0.038 1.972,0.038 0.206,0 0.267,-0.051 0.267,-0.129 C 3.219,3.507 3.109,3.481 2.988,3.481 2.868,3.468 2.795,3.468 2.638,3.443 2.323,3.378 2.202,3.21 2.178,2.747 2.142,2.334 2.142,1.999 2.142,0 l 0,-2.269 c 0,-1.019 0.011,-2.218 0.06,-2.759 0.025,-0.336 0.097,-0.568 0.46,-0.658 0.157,-0.039 0.375,-0.052 0.532,-0.064 0.206,0 0.254,-0.052 0.254,-0.129 0,-0.065 -0.06,-0.129 -0.254,-0.129 -0.822,0 -2.117,0.038 -2.226,0.038 -0.061,0 -1.331,-0.038 -1.742,-0.038 -0.194,0 -0.29,0.026 -0.29,0.129 0,0.09 0.096,0.129 0.241,0.129 0.121,0.012 0.242,0.025 0.375,0.051 0.255,0.039 0.339,0.323 0.376,0.696 C -0.024,-4.461 0,-3.533 0,-2.269 L 0,0 Z" />
          </g>
          <g
             transform="translate(111.6338,44.0845)"
             id="g4214"
             style="fill:#ffffff">
            <path
               inkscape:connector-curvature="0"
               id="path4216"
               style="fill:#ffffff;fill-opacity:1;fill-rule:nonzero;stroke:none"
               d="m 0,0 c 0.073,0 0.073,0.039 0.061,0.064 l -1.065,2.76 c -0.036,0.09 -0.06,0.064 -0.085,0 L -2.117,0.064 C -2.13,0.026 -2.105,0 -2.069,0 L 0,0 Z m -2.42,-1.031 c -0.06,0 -0.085,-0.026 -0.108,-0.091 l -0.376,-1.057 c -0.12,-0.335 -0.194,-0.67 -0.194,-0.825 0,-0.245 0.11,-0.361 0.364,-0.387 0.132,-0.026 0.326,-0.039 0.423,-0.051 0.181,0 0.218,-0.065 0.218,-0.129 0,-0.103 -0.097,-0.129 -0.255,-0.129 -0.544,0 -0.955,0.038 -1.596,0.038 -0.133,0 -0.932,-0.038 -1.537,-0.038 -0.169,0 -0.243,0.051 -0.243,0.129 0,0.103 0.085,0.129 0.231,0.129 0.144,0.012 0.265,0.025 0.387,0.051 0.423,0.09 0.666,0.49 0.919,1.109 l 3.231,7.788 c 0.23,0.554 0.363,0.747 0.496,0.747 0.121,0 0.231,-0.18 0.436,-0.644 0.315,-0.722 2.347,-5.66 3.17,-7.62 0.412,-1.006 0.678,-1.315 1.101,-1.38 0.134,-0.039 0.278,-0.039 0.388,-0.051 0.157,0 0.229,-0.052 0.229,-0.129 0,-0.091 -0.085,-0.129 -0.314,-0.129 -1.186,0 -2.566,0.026 -3.34,0.038 -0.193,0 -0.266,0.039 -0.266,0.117 0,0.077 0.061,0.128 0.169,0.154 0.133,0.026 0.182,0.116 0.146,0.232 l -0.811,2.05 c -0.012,0.052 -0.06,0.078 -0.097,0.078 l -2.771,0 z" />
          </g>
          <g
             transform="translate(47.5405,10.0127)"
             id="g4218"
             style="fill:#ffffff">
            <path
               inkscape:connector-curvature="0"
               id="path4220"
               style="fill:#ffffff;fill-opacity:1;fill-rule:nonzero;stroke:none"
               d="m 0,0 c 0,2.217 -0.015,2.325 -0.044,2.74 -0.029,0.478 -0.162,0.709 -0.514,0.755 -0.132,0.03 -0.309,0.046 -0.47,0.062 -0.133,0.03 -0.25,0.061 -0.25,0.154 0,0.107 0.088,0.153 0.338,0.153 0.764,0 1.513,-0.046 2.057,-0.046 0.235,0 3.761,0.016 3.952,0.016 0.265,0 0.618,0.062 0.735,0.092 0.089,0.031 0.191,0.061 0.221,0.061 0.088,0 0.102,-0.061 0.088,-0.123 C 6.098,3.757 6.04,3.449 6.01,3.141 5.98,2.787 5.951,2.387 5.937,1.755 5.922,1.57 5.878,1.524 5.775,1.524 5.687,1.524 5.643,1.616 5.628,1.74 5.613,1.909 5.613,1.986 5.569,2.171 5.496,2.494 5.319,2.663 4.702,2.726 4.232,2.756 3.012,2.787 2.616,2.787 2.527,2.787 2.498,2.74 2.498,2.648 l 0,-2.925 c 0,-0.092 0.015,-0.154 0.103,-0.154 0.411,-0.015 1.322,0 1.836,0.015 0.735,0.031 0.882,0.062 1.059,0.37 0.059,0.092 0.117,0.139 0.176,0.139 0.088,0 0.088,-0.109 0.088,-0.186 0,-0.153 -0.058,-0.677 -0.103,-1.17 -0.014,-0.292 0,-1.001 0,-1.154 0,-0.139 -0.029,-0.262 -0.132,-0.262 -0.073,0 -0.132,0.062 -0.147,0.231 -0.015,0.093 -0.029,0.17 -0.044,0.261 -0.044,0.432 -0.191,0.647 -0.867,0.678 -0.426,0.031 -1.469,0.062 -1.881,0.062 -0.073,0 -0.088,-0.031 -0.088,-0.108 l 0,-0.97 c 0,-1.293 0,-2.079 0.074,-2.648 0.029,-0.385 0.117,-0.616 0.632,-0.693 0.176,-0.03 0.338,-0.046 0.455,-0.046 0.206,-0.016 0.294,-0.077 0.294,-0.154 0,-0.077 -0.03,-0.154 -0.294,-0.154 -0.705,0 -0.705,0.046 -2.351,0.046 -1.073,0 -1.896,-0.046 -2.189,-0.046 -0.192,0 -0.265,0.062 -0.265,0.139 0,0.061 0.015,0.138 0.22,0.169 0.118,0.016 0.221,0.016 0.397,0.046 0.353,0.047 0.426,0.4 0.47,0.985 C 0,-4.11 0,-3.634 0,-2.34 L 0,0 Z" />
          </g>
          <g
             transform="translate(56.2461,10.0127)"
             id="g4222"
             style="fill:#ffffff">
            <path
               inkscape:connector-curvature="0"
               id="path4224"
               style="fill:#ffffff;fill-opacity:1;fill-rule:nonzero;stroke:none"
               d="m 0,0 c 0,2.217 -0.015,2.464 -0.044,2.895 -0.029,0.338 -0.162,0.554 -0.47,0.616 -0.118,0.03 -0.265,0.03 -0.397,0.046 -0.191,0.015 -0.22,0.091 -0.22,0.169 0,0.077 0.073,0.138 0.279,0.138 0.793,0 1.411,-0.046 1.969,-0.046 0.235,0 3.614,0.016 3.82,0.016 0.25,0 0.529,0.015 0.75,0.062 0.088,0.03 0.161,0.045 0.206,0.045 C 5.966,3.941 5.995,3.88 5.98,3.803 5.951,3.634 5.907,3.464 5.878,3.156 5.863,2.817 5.848,2.54 5.804,1.709 5.804,1.602 5.746,1.493 5.657,1.493 5.584,1.493 5.525,1.555 5.51,1.678 5.481,1.863 5.481,1.971 5.437,2.171 5.363,2.479 5.202,2.663 4.57,2.726 4.085,2.756 3.012,2.787 2.601,2.787 2.527,2.787 2.498,2.74 2.498,2.648 l 0,-2.817 c 0,-0.093 0.015,-0.124 0.103,-0.124 0.397,0 1.308,0 1.822,0.016 0.72,0.031 0.896,0.077 1.058,0.339 0.059,0.123 0.118,0.169 0.176,0.169 0.089,0 0.103,-0.092 0.103,-0.169 0,-0.155 -0.088,-0.74 -0.103,-1.232 -0.014,-0.293 -0.029,-1.001 -0.029,-1.155 0,-0.185 -0.044,-0.231 -0.132,-0.231 -0.074,0 -0.133,0.062 -0.147,0.216 -0.015,0.076 -0.015,0.169 -0.03,0.262 -0.073,0.415 -0.22,0.662 -0.911,0.708 -0.411,0.03 -1.41,0.046 -1.822,0.046 -0.073,0 -0.088,-0.03 -0.088,-0.108 l 0,-0.969 c 0,-0.448 -0.015,-1.078 0,-1.618 0.015,-0.939 0.176,-1.154 1.675,-1.154 0.338,0 0.852,0.016 1.22,0.153 0.367,0.155 0.514,0.478 0.632,1.094 0.029,0.154 0.088,0.231 0.176,0.231 0.103,0 0.117,-0.108 0.117,-0.278 0,-0.585 -0.131,-1.662 -0.191,-1.923 -0.102,-0.339 -0.205,-0.355 -0.69,-0.355 -1.969,0 -2.91,0.077 -4.306,0.077 -0.617,0 -1.249,-0.046 -1.998,-0.046 -0.25,0 -0.308,0.077 -0.308,0.169 0,0.062 0.044,0.139 0.264,0.139 0.132,0.016 0.235,0.016 0.382,0.046 0.426,0.077 0.47,0.6 0.514,1.54 0,0.508 0.015,1.247 0.015,1.986 L 0,0 Z" />
          </g>
          <g
             transform="translate(64.6006,3.9932)"
             id="g4226"
             style="fill:#ffffff">
            <path
               inkscape:connector-curvature="0"
               id="path4228"
               style="fill:#ffffff;fill-opacity:1;fill-rule:nonzero;stroke:none"
               d="m 0,0 c -0.235,0.092 -0.294,0.292 -0.294,0.538 0,1.155 0.029,1.648 0.073,2.064 0.031,0.246 0.104,0.293 0.177,0.293 0.073,0 0.117,-0.062 0.132,-0.201 C 0.103,2.571 0.103,2.463 0.133,2.34 0.309,1.186 1.382,0.523 2.454,0.523 c 1.191,0 1.558,0.585 1.558,1.124 0,0.539 -0.177,0.97 -1.293,1.755 L 1.91,3.972 c -1.572,1.139 -1.998,2.032 -1.998,3.263 0.015,1.54 1.293,2.833 3.424,2.833 0.602,0 0.999,-0.03 1.601,-0.153 C 5.144,9.868 5.378,9.822 5.599,9.761 5.73,9.73 5.761,9.684 5.761,9.561 5.745,9.068 5.716,8.837 5.716,7.605 5.716,7.374 5.672,7.282 5.569,7.282 5.496,7.282 5.422,7.312 5.393,7.544 5.378,7.697 5.334,7.99 5.187,8.283 4.923,8.775 4.232,9.237 3.351,9.237 2.248,9.237 1.896,8.591 1.896,8.021 1.896,7.436 2.16,7.036 2.895,6.559 L 3.645,6.065 C 5.54,4.818 6.069,4.064 6.069,2.725 6.069,1.662 5.613,0.738 4.6,0.153 3.82,-0.309 2.909,-0.385 2.219,-0.385 1.19,-0.385 0.515,-0.231 0,0" />
          </g>
          <g
             transform="translate(77.6914,7.6729)"
             id="g4230"
             style="fill:#ffffff">
            <path
               inkscape:connector-curvature="0"
               id="path4232"
               style="fill:#ffffff;fill-opacity:1;fill-rule:nonzero;stroke:none"
               d="M 0,0 C 0,-1.017 0.015,-2.202 0.059,-2.771 0.088,-3.11 0.19,-3.449 0.588,-3.511 0.749,-3.541 0.896,-3.557 1.116,-3.572 1.352,-3.604 1.41,-3.665 1.41,-3.757 1.41,-3.834 1.337,-3.88 1.102,-3.88 c -0.912,0 -2.292,0.046 -2.484,0.046 -0.19,0 -1.601,-0.046 -1.998,-0.046 -0.221,0 -0.308,0.03 -0.308,0.139 0,0.107 0.117,0.153 0.264,0.169 0.132,0.015 0.265,0.015 0.426,0.046 0.294,0.061 0.382,0.323 0.427,0.709 0.058,0.569 0.058,1.508 0.058,2.817 l 0,5.127 c -0.5,0 -1.352,0.015 -1.999,-0.031 -0.719,-0.046 -0.969,-0.231 -1.131,-0.77 -0.029,-0.093 -0.058,-0.2 -0.103,-0.293 -0.029,-0.092 -0.073,-0.2 -0.161,-0.2 -0.103,0 -0.132,0.123 -0.117,0.277 0.073,0.647 0.19,1.34 0.294,1.955 0.029,0.201 0.102,0.293 0.175,0.293 0.074,0 0.177,-0.061 0.382,-0.092 0.192,-0.046 0.999,-0.108 1.499,-0.108 l 5.878,0 c 0.382,0 0.617,0.03 0.793,0.062 C 3.247,6.266 3.35,6.297 3.424,6.297 3.57,6.297 3.556,6.22 3.556,5.835 3.556,5.681 3.468,4.295 3.453,3.972 3.438,3.756 3.365,3.694 3.291,3.694 3.218,3.694 3.159,3.771 3.145,3.926 3.145,4.095 3.13,4.172 3.13,4.249 3.086,4.665 2.924,4.957 2.233,5.034 1.763,5.065 1.058,5.127 0,5.127 L 0,0 Z" />
          </g>
          <g
             transform="translate(83.7158,10.0127)"
             id="g4234"
             style="fill:#ffffff">
            <path
               inkscape:connector-curvature="0"
               id="path4236"
               style="fill:#ffffff;fill-opacity:1;fill-rule:nonzero;stroke:none"
               d="m 0,0 c 0,2.078 0,2.433 -0.045,2.849 -0.029,0.353 -0.117,0.6 -0.44,0.646 -0.088,0.03 -0.236,0.046 -0.411,0.062 -0.177,0.015 -0.25,0.061 -0.25,0.154 0,0.076 0.043,0.153 0.293,0.153 0.514,0 1.925,-0.046 1.969,-0.046 0.073,0 1.735,0.046 2.234,0.046 0.235,0 0.264,-0.061 0.264,-0.153 C 3.614,3.603 3.512,3.572 3.35,3.557 3.218,3.541 3.203,3.541 3.056,3.511 2.703,3.434 2.586,3.295 2.527,2.833 2.482,2.401 2.482,2.078 2.482,0 l 0,-2.34 c 0,-1.016 0.016,-2.279 0.075,-2.848 0.029,-0.339 0.117,-0.57 0.513,-0.663 0.177,-0.045 0.398,-0.045 0.544,-0.061 0.221,0 0.28,-0.093 0.28,-0.169 0,-0.062 -0.059,-0.139 -0.28,-0.139 -0.911,0 -2.425,0.046 -2.498,0.046 -0.029,0 -1.557,-0.046 -1.969,-0.046 -0.22,0 -0.308,0.046 -0.308,0.154 0,0.077 0.073,0.154 0.221,0.154 0.117,0.016 0.249,0.016 0.425,0.046 0.28,0.061 0.397,0.339 0.426,0.723 C -0.015,-4.588 0,-3.664 0,-2.34 L 0,0 Z" />
          </g>
          <g
             transform="translate(89.6475,12.5068)"
             id="g4238"
             style="fill:#ffffff">
            <path
               inkscape:connector-curvature="0"
               id="path4240"
               style="fill:#ffffff;fill-opacity:1;fill-rule:nonzero;stroke:none"
               d="m 0,0 c -0.383,0.862 -0.5,0.939 -0.94,1.017 0,0.014 -0.221,0.03 -0.309,0.045 -0.133,0.016 -0.177,0.092 -0.177,0.155 0,0.092 0.088,0.153 0.25,0.153 0.72,0 1.499,-0.046 2.028,-0.046 0.5,0 1.234,0.046 2.351,0.046 0.22,0 0.294,-0.061 0.294,-0.153 C 3.497,1.14 3.423,1.078 3.306,1.062 3.159,1.047 3.115,1.031 2.982,1.017 2.586,0.985 2.542,0.831 2.542,0.692 c 0,-0.169 0.059,-0.399 0.294,-0.984 0.587,-1.556 1.395,-3.449 1.983,-4.928 0.53,1.156 1.558,3.696 2.175,5.251 0.147,0.385 0.191,0.554 0.191,0.661 0,0.186 -0.074,0.263 -0.338,0.293 C 6.686,1.017 6.45,1.047 6.318,1.062 6.127,1.093 6.068,1.14 6.068,1.217 c 0,0.092 0.074,0.153 0.28,0.153 0.925,0 1.587,-0.046 1.778,-0.046 0.205,0 1.102,0.046 1.527,0.046 0.206,0 0.294,-0.061 0.294,-0.153 C 9.947,1.124 9.874,1.078 9.698,1.062 9.536,1.047 9.345,1.047 9.14,0.955 8.831,0.816 8.654,0.555 8.287,-0.216 7.758,-1.354 7.259,-2.494 6.494,-4.203 5.643,-6.081 5.084,-7.236 4.731,-7.96 4.349,-8.729 4.202,-8.898 4.025,-8.898 c -0.175,0 -0.278,0.184 -0.528,0.799 L 0,0 Z" />
          </g>
          <g
             transform="translate(103.2959,7.5498)"
             id="g4242"
             style="fill:#ffffff">
            <path
               inkscape:connector-curvature="0"
               id="path4244"
               style="fill:#ffffff;fill-opacity:1;fill-rule:nonzero;stroke:none"
               d="M 0,0 C 0.089,0 0.089,0.03 0.074,0.062 L -1.087,2.817 C -1.131,2.894 -1.131,2.863 -1.16,2.802 L -2.248,0.062 C -2.263,0.015 -2.233,0 -2.204,0 L 0,0 Z m -2.615,-1.217 c -0.088,0 -0.132,-0.093 -0.147,-0.138 L -3.07,-2.141 c -0.133,-0.338 -0.221,-0.646 -0.221,-0.815 0,-0.447 0.559,-0.462 0.896,-0.493 0.191,-0.016 0.236,-0.077 0.236,-0.139 0,-0.107 -0.074,-0.169 -0.25,-0.169 -0.647,0 -1.088,0.046 -1.837,0.046 -0.148,0 -0.999,-0.046 -1.631,-0.046 -0.206,0 -0.265,0.062 -0.265,0.153 0,0.093 0.074,0.155 0.236,0.155 0.632,0.077 0.969,0.261 1.351,1.17 l 3.527,7.883 c 0.308,0.708 0.456,0.908 0.617,0.908 0.147,0 0.265,-0.2 0.515,-0.724 0.323,-0.754 2.6,-5.758 3.482,-7.79 0.455,-0.985 0.69,-1.34 1.19,-1.416 0.118,-0.016 0.22,-0.031 0.294,-0.031 0.161,0 0.249,-0.077 0.249,-0.155 0,-0.107 -0.117,-0.153 -0.263,-0.153 -1.485,0.015 -3.013,0.03 -3.792,0.046 -0.176,0 -0.264,0.062 -0.264,0.139 0,0.092 0.088,0.123 0.176,0.154 0.118,0.046 0.25,0.062 0.177,0.23 l -0.809,1.894 c -0.015,0.047 -0.073,0.077 -0.117,0.077 l -3.042,0 z" />
          </g>
          <g
             transform="translate(113.1338,7.6572)"
             id="g4246"
             style="fill:#ffffff">
            <path
               inkscape:connector-curvature="0"
               id="path4248"
               style="fill:#ffffff;fill-opacity:1;fill-rule:nonzero;stroke:none"
               d="m 0,0 c 0,-1.263 -0.044,-2.232 0.162,-2.525 0.192,-0.277 0.426,-0.324 1.528,-0.324 0.735,0 1.087,0.016 1.456,0.155 0.367,0.154 0.646,0.477 0.807,1.215 0.029,0.155 0.073,0.278 0.192,0.278 0.087,0 0.117,-0.092 0.117,-0.278 0,-0.337 -0.192,-1.677 -0.324,-2.062 -0.117,-0.355 -0.206,-0.355 -0.69,-0.355 -1.983,0 -3.203,0.078 -4.6,0.078 -0.617,0 -1.278,-0.046 -2.027,-0.046 -0.206,0 -0.309,0.046 -0.309,0.169 0,0.061 0.074,0.138 0.25,0.138 0.132,0.016 0.162,0.016 0.308,0.032 0.529,0.091 0.588,0.307 0.633,1.539 0,0.523 0.015,1.262 0.015,2.002 l 0,2.339 c 0,2.217 -0.015,2.372 -0.045,2.802 -0.03,0.37 -0.147,0.585 -0.455,0.678 -0.118,0.031 -0.294,0.061 -0.486,0.077 -0.146,0.016 -0.263,0.046 -0.263,0.154 0,0.108 0.102,0.154 0.367,0.154 0.793,0 1.439,-0.046 1.998,-0.046 0.073,0 1.778,0.046 2.248,0.046 0.235,0 0.294,-0.062 0.294,-0.139 C 1.176,5.958 1.059,5.912 0.94,5.912 0.794,5.896 0.735,5.896 0.544,5.851 0.177,5.789 0.074,5.542 0.045,5.065 0.016,4.634 0,4.434 0,2.187 L 0,0 Z" />
          </g>
        </g>
      </g>
    </g>
  </g>
</svg>
